<?xml version="1.0" encoding="iso-8859-1"?>
<!-- Uploaded to: SVG Repo, www.svgrepo.com, Generator: SVG Repo Mixer Tools -->
<svg height="800px" width="800px" version="1.1" id="Layer_1" xmlns="http://www.w3.org/2000/svg" xmlns:xlink="http://www.w3.org/1999/xlink" 
	 viewBox="0 0 389.624 389.624" xml:space="preserve">
<g>
	<polygon style="fill:#56ACE0;" points="95.354,276.945 95.354,311.661 60.638,276.945 	"/>
	<polygon style="fill:#56ACE0;" points="60.638,63.418 95.354,63.418 95.354,98.069 	"/>
</g>
<path style="fill:#FFFFFF;" d="M261.172,368.549c5.947,0,10.861-4.848,10.861-10.861V32.517c0-5.947-4.848-10.861-10.861-10.861
	H127.289c-5.947,0-10.861,4.848-10.861,10.861v325.172c0,5.947,4.848,10.861,10.861,10.861H261.172z"/>
<path style="fill:#FFC10D;" d="M194.521,63.418c-13.576,0-24.954,11.378-24.954,24.954s11.378,24.954,24.954,24.954
	s24.954-11.378,24.954-24.954C219.475,74.214,208.097,63.418,194.521,63.418z"/>
<path style="fill:#56ACE0;" d="M194.521,170.15c-13.576,0-24.954,11.378-24.954,24.954s11.378,24.954,24.954,24.954
	s24.954-11.378,24.954-24.954S208.097,170.15,194.521,170.15z"/>
<path style="fill:#FFC10D;" d="M194.521,276.945c-13.576,0-24.954,11.378-24.954,24.953c0,13.576,11.378,24.954,24.954,24.954
	s24.954-11.378,24.954-24.954C219.475,288.323,208.097,276.945,194.521,276.945z"/>
<polygon style="fill:#56ACE0;" points="328.404,63.418 293.689,63.418 293.689,98.069 "/>
<polygon style="fill:#FFC10D;" points="328.404,170.15 293.689,170.15 293.689,204.865 "/>
<polygon style="fill:#56ACE0;" points="328.404,276.945 293.689,276.945 293.689,311.596 "/>
<polygon style="fill:#FFC10D;" points="94.772,170.15 60.638,170.15 94.772,204.865 "/>
<g>
	<path style="fill:#194F82;" d="M362.537,166.917c7.046-6.529,2.198-18.424-7.564-18.424h-60.703v-20.04l68.267-68.267
		c7.046-6.529,2.198-18.424-7.564-18.424h-60.703v-9.244C294.271,14.61,279.661,0,261.754,0H127.871
		c-17.907,0-32.517,14.61-32.517,32.517v9.244H34.65c-9.762,0-14.61,11.895-7.564,18.424l68.267,68.267v20.04H34.65
		c-9.762,0-14.61,11.895-7.564,18.424l68.267,68.267v20.04H34.65c-9.762,0-14.61,11.895-7.564,18.424l68.267,68.267v15.192
		c0,17.907,14.61,32.517,32.517,32.517h133.883c17.907,0,32.517-14.61,32.517-32.517v-15.709l68.267-67.749
		c7.046-6.529,2.198-18.424-7.564-18.424h-60.703v-20.04L362.537,166.917z M328.404,170.15l-34.715,34.715V170.15H328.404z
		 M328.404,63.418l-34.715,34.715V63.418C293.689,63.418,328.404,63.418,328.404,63.418z M60.638,63.418h34.715v34.715
		L60.638,63.418z M60.638,170.15h34.715v34.715L60.638,170.15z M60.638,276.945h34.715v34.715L60.638,276.945z M272.549,357.689
		c0,5.947-4.848,10.861-10.861,10.861H127.871c-5.947,0-10.861-4.848-10.861-10.861V32.517c0-5.947,4.848-10.861,10.861-10.861
		h133.883c5.947,0,10.861,4.848,10.861,10.861v325.172H272.549z M328.404,276.945l-34.133,34.715v-34.715H328.404z"/>
	<path style="fill:#194F82;" d="M194.521,41.697c-25.471,0-46.61,21.139-46.61,46.61s21.139,46.61,46.61,46.61
		s46.61-21.139,46.61-46.61C241.131,62.319,220.509,41.697,194.521,41.697z M194.521,113.261c-13.576,0-24.954-11.378-24.954-24.954
		s11.378-24.954,24.954-24.954s24.954,11.378,24.954,24.954S208.097,113.261,194.521,113.261z"/>
	<path style="fill:#194F82;" d="M194.521,148.493c-25.471,0-46.61,21.139-46.61,46.61s21.139,46.61,46.61,46.61
		s46.61-21.139,46.61-46.61S220.509,148.493,194.521,148.493z M194.521,220.057c-13.576,0-24.954-11.378-24.954-24.954
		s11.378-24.954,24.954-24.954s24.954,11.378,24.954,24.954S208.097,220.057,194.521,220.057z"/>
	<path style="fill:#194F82;" d="M194.521,255.289c-25.471,0-46.61,21.139-46.61,46.61c0,25.471,21.139,46.61,46.61,46.61
		s46.61-21.139,46.61-46.61C241.131,276.428,220.509,255.289,194.521,255.289z M194.521,326.788
		c-13.576,0-24.954-11.378-24.954-24.954c0-13.576,11.378-24.954,24.954-24.954s24.954,11.378,24.954,24.954
		C219.475,315.992,208.097,326.788,194.521,326.788z"/>
</g>
</svg>